<?xml version="1.0" encoding="utf-8"?>
<svg id="master-artboard" viewBox="0 0 476.07640075683594 105.59175109863281" version="1.1" xmlns="http://www.w3.org/2000/svg" x="0px" y="0px" style="enable-background:new 0 0 336 235.2;" width="476.076416015625px" height="105.59175109863281px"><defs><style id="ee-google-fonts">@import url(https://fonts.googleapis.com/css?family=Almendra+SC:400);</style><path id="text-path-0" d="M 47.72590637207031 74.9658432006836 A 100 -17 0 0 0 340.3287353515625 74.9658432006836 A 100 -17 0 0 0 47.72590637207031 74.9658432006836" style="fill: none; stroke: red; stroke-width: 2;"/></defs><rect id="ee-background" x="0" y="0" width="476.076416015625" height="105.59175109863281" style="fill: white; fill-opacity: 0; pointer-events: none;"/><path d="M 79.32194519042969 71.88626861572266 C 81.49403381347656 65.11267852783203 82.78656768798828 60.05583572387695 83.19953155517578 56.71574783325195 C 83.61250305175781 53.37565231323242 83.08303833007812 51.14056396484375 81.61115264892578 50.010475158691406 L 82.1148681640625 49.258365631103516 C 83.29553985595703 49.81199645996094 85.2697982788086 50.532596588134766 88.03763580322266 51.42015838623047 C 90.81182098388672 52.309757232666016 93.41789245605469 52.97041702270508 95.8558349609375 53.40214157104492 L 95.60010528564453 54.821861267089844 C 92.5720443725586 54.592960357666016 90.48320007324219 54.36069869995117 89.33357238769531 54.12506866455078 C 87.57351684570312 57.84531021118164 85.65834045410156 62.93352127075195 83.5880355834961 69.38970184326172 L 82.4643325805664 72.89393615722656 C 80.08867645263672 80.30236053466797 78.68770599365234 85.55545806884766 78.26142883300781 88.65324401855469 C 80.2112045288086 89.53752136230469 81.99850463867188 90.50271606445312 83.62334442138672 91.548828125 L 82.90892791748047 92.95797729492188 C 80.91578674316406 91.96878814697266 78.85906219482422 91.13423156738281 76.73873901367188 90.45430755615234 C 74.61842346191406 89.77438354492188 72.88505554199219 89.2850570678711 71.53863525390625 88.98632049560547 C 71.9579849243164 87.67858123779297 71.60684967041016 84.35250091552734 70.48522186279297 79.0080795288086 C 69.3552017211914 73.66797637939453 67.09913635253906 64.623779296875 63.71701431274414 51.8754997253418 L 63.44231033325195 51.913429260253906 L 60.23914337158203 61.90241241455078 C 57.12656784057617 71.60890197753906 55.8271484375 78.1827621459961 56.34088897705078 81.62399291992188 C 58.45523452758789 82.51902770996094 60.49353790283203 83.5857162475586 62.45579528808594 84.82404327392578 L 61.87397384643555 86.21269989013672 C 59.04920959472656 84.95683288574219 55.92279815673828 83.77925872802734 52.4947395324707 82.67998504638672 C 49.066680908203125 81.5807113647461 46.251121520996094 80.85287475585938 44.04806137084961 80.49646759033203 L 44.29587936401367 78.93769073486328 C 46.25049591064453 78.95539093017578 48.28513717651367 79.1492691040039 50.399803161621094 79.51933288574219 C 51.87376022338867 76.4074478149414 53.728336334228516 71.36631774902344 55.963531494140625 64.39592742919922 L 57.08723449707031 60.89168930053711 C 58.87864685058594 55.30522155761719 60.17142868041992 50.454994201660156 60.96558380126953 46.34100341796875 C 56.29326629638672 44.84273147583008 53.099666595458984 44.518741607666016 51.38478469848633 45.369041442871094 C 50.9283561706543 45.83176803588867 50.509803771972656 46.65669631958008 50.12913131713867 47.84381866455078 C 49.74845504760742 49.03094482421875 49.68785858154297 49.90764617919922 49.94733428955078 50.47392654418945 L 49.75584411621094 50.87458801269531 C 48.576194763183594 51.14740753173828 47.319190979003906 51.661460876464844 45.98482894897461 52.416748046875 C 45.52092361450195 52.225982666015625 45.19780731201172 51.901832580566406 45.015472412109375 51.444305419921875 C 44.83110427856445 50.993125915527344 44.81525802612305 50.529476165771484 44.967933654785156 50.0533561706543 C 45.58882141113281 48.11713790893555 47.49993133544922 46.174591064453125 50.70125961303711 44.22571563720703 C 53.90055465698242 42.2831916809082 56.626747131347656 41.28112030029297 58.87984085083008 41.21950149536133 C 59.343746185302734 41.41027069091797 60.63628387451172 41.97526931762695 62.75746154785156 42.91450500488281 C 64.87660217285156 43.86009216308594 66.65035247802734 44.5619010925293 68.0787124633789 45.01993179321289 C 69.50071716308594 45.47592544555664 70.8661880493164 45.78076934814453 72.17510223388672 45.9344596862793 L 71.93681335449219 47.49629211425781 C 70.09587097167969 47.648067474365234 69.07361602783203 48.0413703918457 68.87004852294922 48.67619705200195 C 68.72281646728516 49.812156677246094 69.13216400146484 52.42179489135742 70.09811401367188 56.50510787963867 C 71.05567169189453 60.59273147583008 73.12367248535156 68.58597564697266 76.30210876464844 80.48482513427734 L 76.57681274414062 80.4468994140625 L 79.32194519042969 71.88626861572266 ZM 97.17382049560547 78.08258056640625 C 96.79572296142578 81.76539611816406 97.08265686035156 84.72196197509766 98.03462219238281 86.95227813720703 C 98.99319458007812 89.18350982666016 100.9552230834961 90.50282287597656 103.92070007324219 90.91023254394531 C 106.88618469238281 91.31763458251953 109.79995727539062 90.4360122680664 112.66202545166016 88.26535034179688 L 113.40415954589844 89.25556945800781 C 110.16252136230469 92.37674713134766 106.51250457763672 94.33148956298828 102.45411682128906 95.11979675292969 C 98.45831298828125 94.57083892822266 95.5019302368164 92.8726577758789 93.58496856689453 90.02526092529297 C 91.66800689697266 87.1778564453125 91.00533294677734 83.60104370117188 91.59693145751953 79.2948226928711 C 92.18852996826172 74.98860931396484 94.08218383789062 71.12371063232422 97.27787780761719 67.70013427734375 C 100.48018646240234 64.2774658203125 104.24391174316406 62.25423049926758 108.56906127929688 61.63043212890625 C 111.58077239990234 62.044189453125 114.93951416015625 62.821895599365234 118.64527893066406 63.963558197021484 L 118.39937591552734 65.3126449584961 C 117.6134262084961 65.20466613769531 116.8504409790039 65.24788665771484 116.11042785644531 65.44231414794922 C 115.0704116821289 67.18363189697266 114.25264739990234 69.31550598144531 113.6571273803711 71.83792114257812 L 112.11164093017578 71.62560272216797 C 111.97377014160156 70.18004608154297 112.00646209716797 68.71755981445312 112.20970916748047 67.23812103271484 C 110.75238800048828 66.23712158203125 108.95047760009766 65.58917999267578 106.80397033691406 65.2942886352539 C 104.66407012939453 65.00030517578125 102.81463623046875 65.33502960205078 101.25566864013672 66.2984848022461 C 99.50433349609375 68.66211700439453 98.27982330322266 71.59944915771484 97.5821304321289 75.1104965209961 C 99.27922058105469 75.63973999023438 101.11516571044922 76.04000854492188 103.08995056152344 76.31130981445312 C 106.51114654541016 76.78132629394531 108.67115020751953 76.34121704101562 109.5699462890625 74.99098205566406 L 110.8418960571289 75.35751342773438 C 110.30236053466797 76.54176330566406 109.95047760009766 77.73161315917969 109.78624725341797 78.92704772949219 C 109.62201690673828 80.12248229980469 109.56633758544922 81.6053695678711 109.61920928955078 83.3757095336914 L 108.0991439819336 83.41922760009766 C 107.81310272216797 82.12155151367188 107.65843963623047 80.79818725585938 107.63516998291016 79.44913482666016 C 106.00579071044922 79.06378173828125 104.37873077392578 78.7594985961914 102.75399017333984 78.53629302978516 C 101.12265014648438 78.31217193603516 99.26258850097656 78.16093444824219 97.17382049560547 78.08258056640625 ZM 133.7923583984375 98.38468170166016 C 129.683837890625 98.07731628417969 126.46342468261719 96.53276062011719 124.13111877441406 93.75100708007812 C 121.79216766357422 90.96875762939453 120.78557586669922 87.400390625 121.11134338378906 83.04589080810547 C 121.43761444091797 78.68474578857422 123.06977844238281 74.69538879394531 126.00785064697266 71.07783508300781 C 128.95257568359375 67.46077728271484 132.60256958007812 65.27365112304688 136.95787048339844 64.51646423339844 C 141.22593688964844 64.83576202392578 144.38941955566406 66.29249572753906 146.4482879638672 68.88665771484375 C 148.5071563720703 71.48081970214844 149.3689727783203 75.01830291748047 149.0337677001953 79.49911499023438 C 148.69854736328125 83.97992706298828 147.1826171875 87.93452453613281 144.4860076904297 91.36289978027344 C 141.7893829345703 94.79127502441406 138.22483825683594 97.13187408447266 133.7923583984375 98.38468170166016 M 134.98834228515625 68.18975830078125 C 133.12022399902344 68.05000305175781 131.46261596679688 68.44744873046875 130.01553344726562 69.38209533691406 C 128.0962677001953 72.15998840332031 126.9722671508789 75.74612426757812 126.64351654052734 80.14051055908203 C 126.26502227783203 85.19970703125 127.38753509521484 89.18455505371094 130.01104736328125 92.09505462646484 C 131.3917999267578 93.65574645996094 133.09933471679688 94.51219177246094 135.13363647460938 94.66438293457031 C 137.16795349121094 94.81657409667969 138.8470001220703 94.40067291259766 140.17076110839844 93.41668701171875 C 142.0501251220703 90.63581085205078 143.146484375 87.15122985839844 143.45980834960938 82.96293640136719 C 143.7731475830078 78.7746353149414 143.2788848876953 75.32815551757812 141.97703552246094 72.62349700927734 C 140.67518615722656 69.91883850097656 138.3456268310547 68.44092559814453 134.98834228515625 68.18975830078125 ZM 178.65554809570312 100.47008514404297 C 175.97152709960938 99.92448425292969 172.31069946289062 99.57792663574219 167.6730499267578 99.43041229248047 C 163.03538513183594 99.28289794921875 159.15078735351562 99.3661117553711 156.0192108154297 99.68004608154297 L 155.87890625 98.11479187011719 C 157.0594024658203 97.69877624511719 158.4039306640625 97.36802673339844 159.91249084472656 97.12252807617188 C 160.40489196777344 94.64359283447266 160.74635314941406 90.40897369384766 160.9368896484375 84.41867065429688 L 161.030029296875 81.49015045166016 C 161.19407653808594 76.332763671875 161.12242126464844 72.08499908447266 160.8150634765625 68.74687194824219 C 159.44898986816406 68.49665069580078 158.1496124267578 68.14183044433594 156.91693115234375 67.68241119384766 L 157.2183074951172 66.07118225097656 C 159.32662963867188 66.47174072265625 161.81341552734375 66.71759033203125 164.67861938476562 66.80872344970703 C 167.55050659179688 66.90007781982422 170.01123046875 66.81159210205078 172.060791015625 66.54328155517578 L 172.1911163330078 68.10821533203125 C 170.31076049804688 68.50863647460938 168.4510955810547 68.78298950195312 166.61212158203125 68.93126678466797 C 166.20753479003906 71.16619873046875 165.89385986328125 75.78523254394531 165.67111206054688 82.7883529663086 C 165.44815063476562 89.79814147949219 165.4662628173828 94.47108459472656 165.7254638671875 96.80716705322266 C 166.7196502685547 97.00554656982422 168.12962341308594 97.1337661743164 169.9553680419922 97.19184112548828 C 171.78778076171875 97.2501220703125 173.44151306152344 96.94921112060547 174.9165802001953 96.28910827636719 C 175.54788208007812 94.8951416015625 175.89393615722656 93.24197387695312 175.95477294921875 91.32960510253906 L 177.51397705078125 91.37920379638672 C 177.57882690429688 94.5828857421875 178.0758819580078 97.20000457763672 179.005126953125 99.23057556152344 L 178.65554809570312 100.47008514404297 ZM 197.02366638183594 100.58277893066406 C 192.90371704101562 100.60311889648438 189.5706787109375 99.31954956054688 187.0245361328125 96.73208618164062 C 184.47174072265625 94.14466094970703 183.18455505371094 90.66763305664062 183.1630096435547 86.30101776123047 C 183.14141845703125 81.92774200439453 184.451171875 77.82122802734375 187.09225463867188 73.98147583007812 C 189.739990234375 70.14169311523438 193.2045135498047 67.67123413085938 197.4857940673828 66.5700912475586 C 201.7657470703125 66.54896545410156 205.03504943847656 67.74950408935547 207.29368591308594 70.17172241210938 C 209.55233764648438 72.59393310546875 210.69276428222656 76.05168151855469 210.71493530273438 80.54496002197266 C 210.7371063232422 85.03823852539062 209.5404815673828 89.10086059570312 207.1250457763672 92.73282623291016 C 204.70960998535156 96.36479187011719 201.3424835205078 98.9814453125 197.02366638183594 100.58277893066406 M 195.8146209716797 70.38838195800781 C 193.94131469726562 70.39762878417969 192.32057189941406 70.9256362915039 190.95237731933594 71.97240447998047 C 189.26011657714844 74.89411926269531 188.4248504638672 78.55828857421875 188.4466094970703 82.96490478515625 C 188.47164916992188 88.03816986083984 189.90750122070312 91.92113494873047 192.754150390625 94.61378479003906 C 194.254638671875 96.05973052978516 196.02487182617188 96.77766418457031 198.06484985351562 96.76759338378906 C 200.10482788085938 96.75753021240234 201.74546813964844 96.20942687988281 202.98680114746094 95.12328338623047 C 204.63906860351562 92.2017593383789 205.454833984375 88.64102172851562 205.43409729003906 84.44107055664062 C 205.4133758544922 80.24112701416016 204.64659118652344 76.84486389160156 203.1337890625 74.25230407714844 C 201.6209716796875 71.65973663330078 199.18124389648438 70.37176513671875 195.8146209716797 70.38838195800781 ZM 232.53195190429688 95.33634948730469 C 234.3166961669922 95.25362396240234 236.05738830566406 94.65238189697266 237.7540283203125 93.53262329101562 L 237.1350555419922 86.87413787841797 C 235.95236206054688 86.55522918701172 234.5219268798828 86.29117584228516 232.84378051757812 86.08198547363281 L 232.97291564941406 84.76459503173828 C 233.97555541992188 84.79821014404297 234.7066192626953 84.80436706542969 235.16612243652344 84.78306579589844 C 238.02972412109375 84.65032958984375 240.59127807617188 83.76077270507812 242.85079956054688 82.1143798828125 L 243.52198791503906 83.20447540283203 C 243.0438232421875 83.6871337890625 242.60987854003906 84.18775939941406 242.2201385498047 84.70636749267578 C 241.89617919921875 90.38745880126953 241.73568725585938 95.05989837646484 241.73866271972656 98.72369384765625 L 240.43006896972656 98.78434753417969 C 240.02578735351562 97.26143646240234 239.47084045410156 96.01579284667969 238.7652587890625 95.04742431640625 C 236.45266723632812 97.27689361572266 234.0860595703125 98.8448257446289 231.66543579101562 99.75121307373047 C 227.6364288330078 99.9379653930664 224.42054748535156 98.80564880371094 222.01779174804688 96.35427856445312 C 219.61505126953125 93.90290069580078 218.31304931640625 90.50621032714844 218.11178588867188 86.1642074584961 C 217.9105224609375 81.82219696044922 219.06985473632812 77.67740631103516 221.5897674560547 73.72982788085938 C 224.11634826660156 69.78194427490234 227.44944763183594 67.10807800292969 231.58908081054688 65.70823669433594 C 234.62582397460938 65.56747436523438 238.06997680664062 65.72149658203125 241.9215545654297 66.1703109741211 L 241.925048828125 67.54161834716797 C 241.132568359375 67.57835388183594 240.39016723632812 67.75959014892578 239.69784545898438 68.0853271484375 C 238.99179077148438 69.98672485351562 238.57528686523438 72.23175048828125 238.44834899902344 74.82040405273438 L 236.89002990722656 74.89263916015625 C 236.49160766601562 73.49625396728516 236.25782775878906 72.05219268798828 236.1886749267578 70.56046295166016 C 234.57363891601562 69.84114074707031 232.68394470214844 69.5316390991211 230.5196075439453 69.6319580078125 C 228.36192321777344 69.73197174072266 226.60418701171875 70.39740753173828 225.2463836669922 71.62826538085938 C 223.72195434570312 74.73551177978516 223.0555877685547 78.35691833496094 223.24728393554688 82.49247741699219 C 223.43898010253906 86.62803649902344 224.2019805908203 89.84282684326172 225.5363006591797 92.1368408203125 C 226.87030029296875 94.42418670654297 229.20217895507812 95.49069213867188 232.53195190429688 95.33634948730469 ZM 259.3066101074219 66.66124725341797 C 259.1680603027344 68.92827606201172 259.3979797363281 73.522216796875 259.9963684082031 80.44306182861328 C 260.59478759765625 87.36390686035156 261.1999816894531 92.19640350341797 261.8119812011719 94.9405517578125 C 263.6961669921875 94.98506927490234 265.4433898925781 95.14849853515625 267.0537109375 95.43083190917969 L 266.998779296875 97.00140380859375 C 264.8215637207031 96.89522552490234 262.39459228515625 96.9578628540039 259.7178955078125 97.18929290771484 C 257.0478820800781 97.42015838623047 254.671142578125 97.7929458618164 252.58773803710938 98.30766296386719 L 252.19912719726562 96.71522521972656 C 253.3292999267578 96.2427749633789 254.60743713378906 95.81776428222656 256.0335388183594 95.44017791748047 C 256.14764404296875 92.42581176757812 255.96807861328125 88.18216705322266 255.49485778808594 82.70925903320312 L 255.24246215820312 79.79014587402344 C 254.76925659179688 74.31723022460938 254.1978302001953 70.10747528076172 253.52816772460938 67.16087341308594 C 252.05177307128906 67.03425598144531 250.7196502685547 66.83493041992188 249.5318145751953 66.56291198730469 L 249.64132690429688 64.92739868164062 C 251.78216552734375 65.07686614990234 254.18759155273438 65.03617095947266 256.8576354980469 64.80531311035156 C 259.5343017578125 64.5738754272461 261.9360046386719 64.21900177001953 264.0627136230469 63.74068832397461 L 264.3863830566406 65.27852630615234 C 262.84844970703125 65.83306884765625 261.1551818847656 66.29397583007812 259.3066101074219 66.66124725341797 ZM 277.6659240722656 90.66304016113281 C 279.6681823730469 91.183349609375 281.5940246582031 91.31710815429688 283.4435119628906 91.06431579589844 C 285.2995910644531 90.81062316894531 286.72662353515625 90.17485046386719 287.7246398925781 89.156982421875 C 288.716064453125 88.14002227783203 289.1020812988281 86.8290023803711 288.8826904296875 85.22393035888672 C 288.656982421875 83.57261657714844 286.0496520996094 81.8498306274414 281.06072998046875 80.05558776855469 C 279.1668395996094 79.39262390136719 277.39776611328125 78.51073455810547 275.7535400390625 77.40992736816406 C 274.1168212890625 76.3148193359375 273.2109069824219 75.1265640258789 273.0357666015625 73.84513854980469 C 272.7378234863281 71.6654052734375 273.58935546875 69.30501556396484 275.59033203125 66.76396179199219 C 277.5979309082031 64.22200012207031 279.76336669921875 62.39189147949219 282.086669921875 61.27363204956055 C 285.1383056640625 60.856529235839844 287.94171142578125 60.78959655761719 290.4969482421875 61.072837829589844 L 290.64862060546875 62.182518005371094 C 289.1545715332031 64.1496353149414 288.5110168457031 66.65318298339844 288.71795654296875 69.69316101074219 L 287.1723327636719 69.90442657470703 C 287.0143127441406 68.74850463867188 286.71136474609375 67.3197021484375 286.2634582519531 65.6180191040039 C 284.7332458496094 65.15430450439453 283.1424865722656 65.0353012084961 281.49114990234375 65.2610092163086 C 279.8464660644531 65.48580932617188 278.52838134765625 66.03267669677734 277.5368957519531 66.90161895751953 C 276.5388488769531 67.77145385742188 276.1328125 68.88671875 276.31878662109375 70.24739837646484 C 276.44879150390625 71.19855499267578 277.32281494140625 72.1287612915039 278.94085693359375 73.03801727294922 C 280.5531921386719 73.95478820800781 282.2837829589844 74.7275390625 284.13262939453125 75.35629272460938 C 285.9814758300781 75.98503875732422 287.7261962890625 76.83660888671875 289.3668212890625 77.91099548339844 C 291.001708984375 78.9928970336914 291.9062805175781 80.17124938964844 292.0805358886719 81.44606018066406 C 292.4190979003906 83.92303466796875 291.6659851074219 86.53575897216797 289.8211975097656 89.28423309326172 C 287.96978759765625 92.03361511230469 285.7940673828125 94.08381652832031 283.29400634765625 95.43482971191406 C 280.6915283203125 95.79053497314453 278.2150573730469 95.81278228759766 275.8645935058594 95.50155639648438 C 275.2437744140625 95.8824691772461 274.6284484863281 96.45103454589844 274.0185852050781 97.20726013183594 L 272.7991943359375 96.556396484375 C 274.7604675292969 93.7247085571289 275.6128845214844 90.43563842773438 275.35650634765625 86.68917846679688 L 276.9021301269531 86.47792053222656 C 277.099853515625 87.92446899414062 277.3544616699219 89.31951141357422 277.6659240722656 90.66304016113281 ZM 316.9670715332031 84.94914245605469 C 316.19171142578125 82.48841094970703 314.4180603027344 79.00019836425781 311.6461486816406 74.48448944091797 C 308.8742370605469 69.96878814697266 306.00732421875 65.65076446533203 303.0454406738281 61.53042984008789 L 302.8345947265625 61.65978240966797 L 304.8328552246094 73.19236755371094 C 305.63555908203125 77.9581069946289 306.6119079589844 82.16586303710938 307.761962890625 85.81562805175781 C 308.46319580078125 88.04109954833984 309.6250915527344 89.31059265136719 311.2476501464844 89.6241226196289 L 311.3277893066406 90.71025848388672 C 310.0766296386719 90.88780212402344 308.4877624511719 91.28011322021484 306.5611267089844 91.88719177246094 C 304.640869140625 92.49225616455078 302.5799560546875 93.31639862060547 300.37835693359375 94.35960388183594 L 299.6530456542969 92.8896255493164 C 300.86279296875 92.02613830566406 302.0311584472656 91.30850982666016 303.1580810546875 90.73673248291016 L 300.1368408203125 61.84930419921875 C 297.9644775390625 62.14237594604492 296.3392639160156 62.3084831237793 295.2611999511719 62.34762191772461 L 294.9525451660156 60.735870361328125 C 297.94573974609375 60.2750129699707 300.6631774902344 59.659908294677734 303.1048278808594 58.89054870605469 C 305.5401306152344 58.123191833496094 307.390869140625 57.38624954223633 308.6570739746094 56.679718017578125 L 309.090087890625 57.65465545654297 C 308.1100158691406 58.27102279663086 307.7201843261719 58.89712905883789 307.9205322265625 59.53297805786133 C 308.19500732421875 60.404090881347656 311.01318359375 65.05549621582031 316.3750305175781 73.4872055053711 L 319.08819580078125 77.53913116455078 L 319.4592590332031 77.2859115600586 C 319.1346740722656 76.2558364868164 318.90289306640625 69.22026062011719 318.76385498046875 56.179176330566406 C 318.5514831542969 55.50517654418945 317.86712646484375 55.19658660888672 316.7107238769531 55.25341033935547 L 316.5066223144531 54.20634841918945 C 317.9427795410156 54.061370849609375 319.9007568359375 53.59819030761719 322.38055419921875 52.816810607910156 C 324.8603820800781 52.03542709350586 327.4427490234375 50.9805793762207 330.1276550292969 49.65227127075195 L 330.7892150878906 51.152828216552734 C 329.80712890625 51.76283645629883 328.5332336425781 52.48926544189453 326.96746826171875 53.33211898803711 C 327.1471862792969 54.32395935058594 327.5275573730469 55.74185562133789 328.10858154296875 57.5858154296875 C 328.68963623046875 59.42977523803711 330.13824462890625 63.128746032714844 332.4544677734375 68.68273162841797 C 334.7686767578125 74.23036193847656 336.4827575683594 78.00645446777344 337.5966796875 80.01102447509766 C 339.1296081542969 79.75167083740234 340.7247314453125 79.55661010742188 342.3820495605469 79.42581939697266 L 342.6696472167969 80.97080993652344 C 340.5213317871094 81.34017944335938 338.1882019042969 81.92156982421875 335.6702575683594 82.71497344970703 C 333.14593505859375 83.5103759765625 330.9228820800781 84.38560485839844 329.0010681152344 85.34066009521484 L 328.2757568359375 83.87068176269531 C 329.4593811035156 83.05736541748047 330.77362060546875 82.31473541259766 332.2184753417969 81.64278411865234 C 329.1528015136719 72.31280517578125 325.7381896972656 63.683406829833984 321.9747009277344 55.75459289550781 L 321.7934875488281 55.81169128417969 C 321.5057067871094 69.1620101928711 321.784912109375 77.66797637939453 322.6311340332031 81.32959747314453 C 321.8863220214844 81.87183380126953 321.075927734375 82.68286895751953 320.1999816894531 83.76271057128906 C 319.3176574707031 84.84455871582031 318.6908264160156 85.83889770507812 318.3195495605469 86.74574279785156 L 317.4539489746094 86.49425506591797 L 316.9670715332031 84.94914245605469 Z" transform="matrix(1.026598334312439, 0, 0, 1.026598334312439, 23.714069366455078, -11.625404357910156)" style="fill: rgb(8, 8, 8); white-space: pre; color: rgb(51, 51, 51);"/><g transform="matrix(-0.25945237278938293, 0, 0, -0.25945237278938293, 417.80085987987013, 65.5892714012968)"><g id="g-1" transform="matrix(1, 0, 0, 1, 0, 0)">
	<g id="g-2">
		<path class="st0" d="M652,46c27.6,0,50,22.4,50,50s-22.4,50-50,50s-50-22.4-50-50S624.4,46,652,46z" style="fill: rgb(51, 51, 51);"/>
	</g>
</g></g><g transform="matrix(0.5512636874069164, 0, 0, 0.5512636874069164, 82.95689969401036, -344.0862597968564)"><path d="M 239 626.2000122070312 L 250.60000610351562 662 L 288.20001220703125 662 L 257.79998779296875 684.0999755859375 L 269.3999938964844 719.9000244140625 L 239 697.7999877929688 L 208.60000610351562 719.9000244140625 L 220.1999969482422 684.0999755859375 L 189.8000030517578 662 L 227.39999389648438 662 Z" class="st0" style="fill: rgb(51, 51, 51);" transform="matrix(1, 0, 0, 1, 0, 0)"/></g></svg>